<svg id="Layer_1" data-name="Layer 1" xmlns="http://www.w3.org/2000/svg" xmlns:xlink="http://www.w3.org/1999/xlink" width="578.911" height="207.776" viewBox="0 0 578.911 207.776">
  <defs>
    <symbol id="sunny-2" data-name="sunny-2" viewBox="0 0 20.482 14.413">
      <circle cx="15.114" cy="5.23" r="4.5" style="fill: #fff200;stroke: #2e3192;stroke-miterlimit: 10;stroke-width: 1.46000003814697px"/>
      <path d="M19.714,8.03a3.328,3.328,0,0,1-1.5,3.3,3.4,3.4,0,0,1-2.8.4h-.1c0,.1,0,.1-.1.2a3.372,3.372,0,0,1-4.5,1.4,2.765,2.765,0,0,1-1.3-1.1h-.1a3.967,3.967,0,0,1-3.2-.1c-.1-.1-.1-.1-.2-.1a3.624,3.624,0,0,1-2.7.1l-.1-.1h0a3.576,3.576,0,0,1-2.2-4.5h0a9.1,9.1,0,0,1,1.8-2.1v-.2a4.162,4.162,0,0,1,3.2-3.4,4.522,4.522,0,0,1,4.8,2s.5,2.5,1.5,3.4a4.763,4.763,0,0,0,4,.9l.3-.1a6.382,6.382,0,0,0,2.6-1.3l.2-.1a5.732,5.732,0,0,1,.4,1.4Z" style="fill: #fff;stroke: #2e3192;stroke-miterlimit: 10;stroke-width: 1.46000003814697px"/>
    </symbol>
    <symbol id="cloud-2" data-name="cloud-2" viewBox="0 0 106.029 64.065">
      <path d="M96.414,34.04a17.744,17.744,0,0,1-7.1,15.5,15.542,15.542,0,0,1-13.1,1.9h-.5l-.3.6a16.069,16.069,0,0,1-21.9,6.6,21.1,21.1,0,0,1-6.3-4.8h-.5a18.264,18.264,0,0,1-15-.5h-.5a18.2,18.2,0,0,1-12.6,0l-1-.5a16.9,16.9,0,0,1-10.6-21.3v-.5a27.139,27.139,0,0,1,9.7-10.2v-1a20.33,20.33,0,0,1,15-16,22.823,22.823,0,0,1,24.2,11.6h.5c.1-.1.2-.2.3-.2a16.972,16.972,0,0,1,23.9,2.2l1.9,1.9c0,.5.5,0,.5,0a14.587,14.587,0,0,1,13.4,13.5v1.2Z" style="fill: #fff;stroke: #2e3192;stroke-miterlimit: 10;stroke-width: 6.91800022125244px"/>
      <path d="M1.314,29.24h0l-1,.5v-.5l.9-.5h.5v4.4h-.5Z" style="fill: #2e3192;stroke: #2e3192;stroke-miterlimit: 10;stroke-width: 0.628899991512299px"/>
      <path d="M6.514,30.64c0,1.5-.5,2.4-1.5,2.4s-1.5-1-1.5-2.4.5-2.4,1.5-2.4S6.514,29.24,6.514,30.64Zm-1.5,1.5c.5,0,1,0,1-1.5s0-1.9-1-1.9-1,.5-1,1.9C4.214,31.64,4.714,32.14,5.014,32.14Z" style="fill: #2e3192;stroke: #2e3192;stroke-miterlimit: 10;stroke-width: 0.628899991512299px"/>
      <path d="M8.414,28.74h0l-1,.5v-.5h1.9v4.4h-1v-4.4Z" style="fill: #2e3192;stroke: #2e3192;stroke-miterlimit: 10;stroke-width: 0.628899991512299px"/>
      <path d="M13.714,30.14c0,1.5-.5,2.4-1.5,2.4s-1.5-.5-1.5-1.9.5-2.4,1.5-2.4S13.714,28.74,13.714,30.14Zm-1.4,2c.5,0,1,0,1-1.5s-.5-1.9-1-1.9-1,.5-1,1.9C11.314,31.64,11.814,32.14,12.314,32.14Z" style="fill: #2e3192;stroke: #2e3192;stroke-miterlimit: 10;stroke-width: 0.628899991512299px"/>
      <path d="M15.314,28.74h0l-1,.5v-.5l1-.5h.5v4.4h-.5Z" style="fill: #2e3192;stroke: #2e3192;stroke-miterlimit: 10;stroke-width: 0.628899991512299px"/>
      <path d="M21.014,30.64a2.154,2.154,0,0,1-1.9,2.4c-1,0-1.5-1-1.5-2.4s.5-2.4,1.5-2.4A2.088,2.088,0,0,1,21.014,30.64Zm-1.8,1.5c1,0,1,0,1-1.5s-.5-1.9-1-1.9-1,.5-1,1.9C18.214,31.64,18.214,32.14,19.214,32.14Z" style="fill: #2e3192;stroke: #2e3192;stroke-miterlimit: 10;stroke-width: 0.628899991512299px"/>
      <path d="M22.914,33.04v-4.4h0l-1,.5v-.5h1.5v4.4h-.5Z" style="fill: #2e3192;stroke: #2e3192;stroke-miterlimit: 10;stroke-width: 0.628899991512299px"/>
      <path d="M29.214,30.64c0,1.5-.5,1.9-1.5,1.9s-1.5-.5-1.5-1.9.5-2.4,1.5-2.4S29.214,29.24,29.214,30.64Zm-1.5,1.5c.5,0,1,0,1-1.5s-.5-1.9-1-1.9-1,.5-1,1.9C26.814,31.64,27.214,32.14,27.714,32.14Z" style="fill: #2e3192;stroke: #2e3192;stroke-miterlimit: 10;stroke-width: 0.628899991512299px"/>
      <path d="M33.214,30.64c0,1.5-.5,2.4-1.5,2.4s-1.5-1-1.5-2.4.5-2.4,1.5-2.4S33.214,29.24,33.214,30.64Zm-2,1.5c1,0,1.5,0,1.5-1.5s0-1.9-1-1.9-1,.5-1,1.9C30.714,31.64,30.214,32.14,31.214,32.14Z" style="fill: #2e3192;stroke: #2e3192;stroke-miterlimit: 10;stroke-width: 0.628899991512299px"/>
      <path d="M36.514,30.64c0,1.5-.5,2.4-1.5,2.4s-1.5-1-1.5-2.4.5-2.4,1.5-2.4S36.514,29.24,36.514,30.64Zm-1.5,1.5c.5,0,1,0,1-1.5s0-1.9-1-1.9-1,.5-1,1.9C34.214,31.64,34.714,32.14,35.014,32.14Z" style="fill: #2e3192;stroke: #2e3192;stroke-miterlimit: 10;stroke-width: 0.628899991512299px"/>
      <path d="M38.414,28.74h0l-1,.5h0l1-.5h.5v4.4h-.5Z" style="fill: #2e3192;stroke: #2e3192;stroke-miterlimit: 10;stroke-width: 0.628899991512299px"/>
      <path d="M42.314,33.04v-4.4h0l-1,.5v-.5h1v4.4h0Z" style="fill: #2e3192;stroke: #2e3192;stroke-miterlimit: 10;stroke-width: 0.628899991512299px"/>
      <path d="M46.214,29.24h0l-1,.5-.5-.5,1-.5h.5v4.4h-1Z" style="fill: #2e3192;stroke: #2e3192;stroke-miterlimit: 10;stroke-width: 0.628899991512299px"/>
      <path d="M49.214,28.74h0l-1,.5h0l1-.5h.5v4.4h-.5Z" style="fill: #2e3192;stroke: #2e3192;stroke-miterlimit: 10;stroke-width: 0.628899991512299px"/>
      <path d="M52.914,28.74h0l-1,.5v-.5h1.5v4.4h-.5Z" style="fill: #2e3192;stroke: #2e3192;stroke-miterlimit: 10;stroke-width: 0.628899991512299px"/>
      <path d="M57.814,28.74h0l-1,.5v-.5h1.5v4.4h-.5Z" style="fill: #2e3192;stroke: #2e3192;stroke-miterlimit: 10;stroke-width: 0.628899991512299px"/>
      <path d="M63.214,30.64a2.154,2.154,0,0,1-1.9,2.4c-1,0-1.5-1-1.5-2.4s1-2.4,1.5-2.4A2.308,2.308,0,0,1,63.214,30.64Zm-2,1.5c1,0,1,0,1-1.5s-.5-1.9-1-1.9-.5.5-.5,1.9C60.214,31.64,60.214,32.14,61.214,32.14Z" style="fill: #2e3192;stroke: #2e3192;stroke-miterlimit: 10;stroke-width: 0.628899991512299px"/>
      <path d="M66.514,30.64c0,1.5-.5,2.4-1.5,2.4s-1.5-1-1.5-2.4.5-2.4,1.5-2.4S66.514,29.24,66.514,30.64Zm-1.5,1.5c.5,0,.5,0,.5-1.5s-.5-1.9-1-1.9-1,.5-1,1.9C64.214,31.64,64.514,32.14,65.014,32.14Z" style="fill: #2e3192;stroke: #2e3192;stroke-miterlimit: 10;stroke-width: 0.628899991512299px"/>
      <path d="M70.014,30.64c0,1.5-.5,2.4-1.5,2.4s-1.5-1-1.5-2.4.5-2.4,1.5-2.4C69.414,28.24,70.014,29.24,70.014,30.64Zm-1.3,1.5c.5,0,1,0,1-1.5s-.5-1.9-1-1.9-1,.5-1,1.9C67.714,31.64,68.214,32.14,68.714,32.14Z" style="fill: #2e3192;stroke: #2e3192;stroke-miterlimit: 10;stroke-width: 0.628899991512299px"/>
      <path d="M72.314,28.74h0l-1,.5v-.5h1v4.4h-.5Z" style="fill: #2e3192;stroke: #2e3192;stroke-miterlimit: 10;stroke-width: 0.628899991512299px"/>
      <path d="M75.714,28.74h0l-1,.5v-.5h1.5v4.4h-.5Z" style="fill: #2e3192;stroke: #2e3192;stroke-miterlimit: 10;stroke-width: 0.628899991512299px"/>
      <path d="M80.514,30.64c0,1.5-.5,2.4-1.5,2.4s-1.5-1-1.5-2.4.5-2.4,1.5-2.4S80.514,29.24,80.514,30.64Zm-1.3,1.5c.5,0,1-1,1-1.9,0-1,0-1.5-1-1.5s-1,.5-1,1.9C78.214,31.64,78.714,32.14,79.214,32.14Z" style="fill: #2e3192;stroke: #2e3192;stroke-miterlimit: 10;stroke-width: 0.628899991512299px"/>
      <path d="M84.514,30.64c0,1.5-.5,2.4-1.5,2.4s-1.5-1-1.5-2.4.5-2.4,1.5-2.4C83.914,28.24,84.514,29.24,84.514,30.64Zm-1.3,1.5c.5,0,1,0,1-1.5s-.5-1.9-1-1.9-1,.5-1,1.9C82.214,31.64,82.714,32.14,83.214,32.14Z" style="fill: #2e3192;stroke: #2e3192;stroke-miterlimit: 10;stroke-width: 0.628899991512299px"/>
      <path d="M21.014,39.34c0,1.5-.5,2.4-1.5,2.4s-1.5-1-1.5-2.4c0-1.5.5-2.4,1.5-2.4S21.014,37.94,21.014,39.34Zm-1.3,1.5c.5,0,1-.5,1-1.9s-.5-1.9-1-1.9-1,.5-1,1.9S19.214,40.84,19.714,40.84Z" style="fill: #2e3192;stroke: #2e3192;stroke-miterlimit: 10;stroke-width: 0.628899991512299px"/>
      <path d="M22.914,37.44h0l-1,.5v-.5l1.5-.5h.5v4.4h-1Z" style="fill: #2e3192;stroke: #2e3192;stroke-miterlimit: 10;stroke-width: 0.628899991512299px"/>
      <path d="M28.314,39.34c0,1.5-.5,2.4-1.5,2.4s-1.5-1-1.5-2.4c0-1.5.5-2.4,1.5-2.4C27.714,36.94,28.314,37.94,28.314,39.34Zm-2,1.5c.5,0,1-.5,1-1.9s-.5-1.9-1-1.9-1,1-1,1.9C25.414,40.34,25.814,40.84,26.314,40.84Z" style="fill: #2e3192;stroke: #2e3192;stroke-miterlimit: 10;stroke-width: 0.628899991512299px"/>
      <path d="M29.914,37.44h0l-1,.5v-.5l1-.5h.5v4.4h-.5Z" style="fill: #2e3192;stroke: #2e3192;stroke-miterlimit: 10;stroke-width: 0.628899991512299px"/>
      <path d="M35.014,39.34c0,1.5-.5,2.4-1.5,2.4s-1.5-1-1.5-2.4c0-1.5.5-2.4,1.5-2.4C34.714,36.94,35.014,37.94,35.014,39.34Zm-1.3,1.5c.5,0,1-.5,1-1.9s-.5-1.9-1-1.9-1,1-1,1.9C32.714,40.34,33.214,40.84,33.714,40.84Z" style="fill: #2e3192;stroke: #2e3192;stroke-miterlimit: 10;stroke-width: 0.628899991512299px"/>
      <path d="M37.014,37.44h0l-1,.5v-.5l1-.5h.5v4.4h-.5Z" style="fill: #2e3192;stroke: #2e3192;stroke-miterlimit: 10;stroke-width: 0.628899991512299px"/>
      <path d="M42.314,39.34c0,1.5-.5,2.4-1.5,2.4s-1.5-1-1.5-2.4c0-1.5.5-2.4,1.5-2.4S42.314,37.94,42.314,39.34Zm-2.8-.5c0,1.5-.1,1.9.8,1.9s1-1,1-1.9c0-1,0-1.5-1-1.5C39.914,37.44,39.514,37.44,39.514,38.84Z" style="fill: #2e3192;stroke: #2e3192;stroke-miterlimit: 10;stroke-width: 0.628899991512299px"/>
      <path d="M44.414,37.44h0l-1,.5v-.5l1-.5h.5v4.4h-.5Z" style="fill: #2e3192;stroke: #2e3192;stroke-miterlimit: 10;stroke-width: 0.628899991512299px"/>
      <path d="M51.014,38.84c0,1.9-.5,2.9-1.5,2.9s-1.5-1-1.5-2.4c0-1.5.5-2.4,1.5-2.4C50.014,36.94,51.014,36.94,51.014,38.84Zm-1.5,2c.5,0,1-.5,1-1.9s-.5-1.9-1-1.9-1,.5-1,1.9C48.714,40.34,49.214,40.84,49.514,40.84Z" style="fill: #2e3192;stroke: #2e3192;stroke-miterlimit: 10;stroke-width: 0.628899991512299px"/>
      <path d="M54.414,38.84c0,1.5-.5,2.4-1.5,2.4s-1.5-1-1.5-2.4.5-1.9,1.5-1.9C54.014,36.94,54.414,37.44,54.414,38.84Zm-1.5,2c.5,0,1-.5,1-1.9s0-1.9-1-1.9-1,1-1,1.9C52.014,40.34,52.514,40.84,52.914,40.84Z" style="fill: #2e3192;stroke: #2e3192;stroke-miterlimit: 10;stroke-width: 0.628899991512299px"/>
      <path d="M57.814,38.84c0,1.5-.5,2.4-1.5,2.4s-1.5-1-1.5-2.4.5-1.9,1.5-1.9S57.814,37.44,57.814,38.84Zm-1.5,2c.5,0,1-.5,1-1.9s-.5-1.9-1-1.9-1,1-1,1.9C55.414,40.34,55.814,40.84,56.314,40.84Z" style="fill: #2e3192;stroke: #2e3192;stroke-miterlimit: 10;stroke-width: 0.628899991512299px"/>
      <path d="M59.714,37.44h0l-1,.5v-.5l1-.5h1v4.4h-1Z" style="fill: #2e3192;stroke: #2e3192;stroke-miterlimit: 10;stroke-width: 0.628899991512299px"/>
      <path d="M63.714,37.44h0l-1,.5v-.5l1-.5h0v4.4h-.6Z" style="fill: #2e3192;stroke: #2e3192;stroke-miterlimit: 10;stroke-width: 0.628899991512299px"/>
      <path d="M67.014,37.44h0l-1,.5v-.5l1-.5h.5v4.4h-.5Z" style="fill: #2e3192;stroke: #2e3192;stroke-miterlimit: 10;stroke-width: 0.628899991512299px"/>
      <path d="M70.414,37.44h0l-.5.5v-.5l1-.5h.5v4.4h-.5Z" style="fill: #2e3192;stroke: #2e3192;stroke-miterlimit: 10;stroke-width: 0.628899991512299px"/>
      <path d="M73.714,37.44h0l-.5.5v-.5l1-.5h1v4.4h-1Z" style="fill: #2e3192;stroke: #2e3192;stroke-miterlimit: 10;stroke-width: 0.628899991512299px"/>
      <path d="M79.214,37.44h0l-1,.5v-.5l1-.5h1v4.4h-1Z" style="fill: #2e3192;stroke: #2e3192;stroke-miterlimit: 10;stroke-width: 0.628899991512299px"/>
      <path d="M84.514,38.84c0,1.5-.5,2.4-1.5,2.4s-1.5-1-1.5-2.4.5-1.9,1.5-1.9C83.914,36.94,84.514,37.44,84.514,38.84Zm-1.3,2c.5,0,1-.5,1-1.9s0-1.9-1-1.9-1,1-1,1.9C82.214,40.34,82.714,40.84,83.214,40.84Z" style="fill: #2e3192;stroke: #2e3192;stroke-miterlimit: 10;stroke-width: 0.628899991512299px"/>
      <path d="M87.814,38.84c0,1.5-.5,2.4-1.5,2.4s-1.5-1-1.5-2.4.5-1.9,1.5-1.9S87.814,37.44,87.814,38.84Zm-1.5,2c.5,0,1-.5,1-1.9s-.5-1.9-1-1.9-1,1-1,1.9C85.314,40.34,85.814,40.84,86.314,40.84Z" style="fill: #2e3192;stroke: #2e3192;stroke-miterlimit: 10;stroke-width: 0.628899991512299px"/>
      <path d="M91.214,38.84c0,1.5-.5,2.4-1.5,2.4s-1.5-1-1.5-2.4a1.72,1.72,0,0,1,1.5-1.9C90.714,36.94,91.214,37.44,91.214,38.84Zm-1.5,2c1,0,1-.5,1-1.9s-.5-1.9-1-1.9-.5,1-.5,1.9C88.714,40.34,88.714,40.84,89.714,40.84Z" style="fill: #2e3192;stroke: #2e3192;stroke-miterlimit: 10;stroke-width: 0.628899991512299px"/>
      <path d="M93.714,41.34v-3.9h0l-1,.5v-.5l1-.5h.5v4.4h-.5Z" style="fill: #2e3192;stroke: #2e3192;stroke-miterlimit: 10;stroke-width: 0.628899991512299px"/>
      <path d="M97.214,37.44h0l-1,.5v-.5l1-.5h.5v4.4h-.7Z" style="fill: #2e3192;stroke: #2e3192;stroke-miterlimit: 10;stroke-width: 0.628899991512299px"/>
      <path d="M102.314,39.34c0,1.5-.5,2.4-1.5,2.4s-1.5-1-1.5-2.4c0-1.5.5-2.4,1.5-2.4C101.314,36.94,102.314,37.94,102.314,39.34Zm-1.5,1.5c.5,0,1-.5,1-1.9s-.5-1.9-1-1.9-1,.5-1,1.9C99.914,40.34,100.314,40.84,100.814,40.84Z" style="fill: #2e3192;stroke: #2e3192;stroke-miterlimit: 10;stroke-width: 0.628899991512299px"/>
      <path d="M105.714,39.34c0,1.5-.5,2.4-1.5,2.4s-1.5-1-1.5-2.4c0-1.5.5-2.4,1.5-2.4S105.714,37.94,105.714,39.34Zm-1.5,1.5c.5,0,1-.5,1-1.9s-.5-1.9-1-1.9-1,1-1,1.9C103.214,40.34,103.714,40.84,104.214,40.84Z" style="fill: #2e3192;stroke: #2e3192;stroke-miterlimit: 10;stroke-width: 0.628899991512299px"/>
    </symbol>
    <symbol id="rainy-2" data-name="rainy-2" viewBox="0 0 20.504 10.883">
      <path d="M19.73,7.158v-.2a3.394,3.394,0,0,0-2.9-2.9h-.1a3.705,3.705,0,0,0-5.1-1.1c-.1.1-.3.2-.4.3h-.1a4.579,4.579,0,0,0-5.2-2.4,4.186,4.186,0,0,0-3.1,3.4v.2a4.837,4.837,0,0,0-1.9,2.1,1.854,1.854,0,0,0-.2.7l19-.1Z" style="fill: #fff;stroke: #2e3192;stroke-miterlimit: 10;stroke-width: 1.46000003814697px"/>
      <path d="M8.43,8.958l-.3.3.6.6c.2.2.3.4.5.6l.4-.3c-.2-.2-.5-.4-.7-.6A2.651,2.651,0,0,1,8.43,8.958Z" style="fill: #2e3192"/>
      <path d="M5.63,8.858l-.8.8a1.024,1.024,0,0,0,.6.5c.2.2.5.4.7.6l.6-.6a1.794,1.794,0,0,0-.5-.7Z" style="fill: #2e3192"/>
      <path d="M2.53,8.958l-.4.4a7.1,7.1,0,0,0,1,1.4l.7-.7A6.885,6.885,0,0,1,2.53,8.958Z" style="fill: #2e3192"/>
      <path d="M17.63,8.958l-.7.7c.4.3.9.6,1.4.9l.3-.4C18.33,9.758,17.93,9.358,17.63,8.958Z" style="fill: #2e3192"/>
      <path d="M14.73,8.758l-1,1a4.263,4.263,0,0,0,1.2,1.1l1-.9Z" style="fill: #2e3192;stroke: #2e3192;stroke-miterlimit: 10;stroke-width: 0.03999999910593px"/>
      <path d="M11.63,8.958l-.7.6c.1.2.3.4.5.7l.5.6.9-.8-.6-.6Z" style="fill: #2e3192"/>
    </symbol>
    <symbol id="cloudy-2" data-name="cloudy-2" viewBox="0 0 20.572 13.442">
      <path d="M19.8,7.018a3.328,3.328,0,0,1-1.5,3.3,3.4,3.4,0,0,1-2.8.4h-.1a.1.1,0,0,1-.1.1,3.405,3.405,0,0,1-4.6,1.5,2.163,2.163,0,0,1-1.2-1.1H9.4a3.606,3.606,0,0,1-3.2-.1H6.1a3.591,3.591,0,0,1-2.7.1l-.2-.1h0a3.55,3.55,0,0,1-2.3-4.5v-.1a9.516,9.516,0,0,1,1.9-2.1l.1-.2A4.052,4.052,0,0,1,6,.818a4.836,4.836,0,0,1,5.1,2.4h.1a3.754,3.754,0,0,1,5.2.3,1.38,1.38,0,0,0,.3.4c0,.1.1,0,.1,0a3.411,3.411,0,0,1,3,3.1Z" style="fill: #fff;stroke: #2e3192;stroke-miterlimit: 10;stroke-width: 1.46000003814697px"/>
    </symbol>
    <symbol id="tunder-2" data-name="tunder-2" viewBox="0 0 20.498 19.818">
      <path d="M19.756,7.118a3.7,3.7,0,0,1-1.4,3.2,3.459,3.459,0,0,1-2.8.4h-.1a.1.1,0,0,1-.1.1,3.405,3.405,0,0,1-4.6,1.5,2.765,2.765,0,0,1-1.3-1.1h-.1a3.967,3.967,0,0,1-3.2-.1h-.1a3.591,3.591,0,0,1-2.7.1l-.2-.1c-.1,0-.1,0-.2-.1a3.406,3.406,0,0,1-2-4.4v-.1a5.2,5.2,0,0,1,1.8-2.1l.1-.2a4.052,4.052,0,0,1,3.1-3.4,4.63,4.63,0,0,1,5,2.4h.1a3.742,3.742,0,0,1,5.2.3c.1.1.2.3.3.4,0,.1.1,0,.1,0a3.4,3.4,0,0,1,3,3Z" style="fill: #fff;stroke: #2e3192;stroke-miterlimit: 10;stroke-width: 1.46000003814697px"/>
      <path d="M12.056,8.918l-1.4,2.8c-.6.9-1.1,1.8-1.7,2.8l-.2-.8c.9.3,1.9.7,2.8,1l1,.3-.7.8c-.4.4-.7.8-1.1,1.2a10.592,10.592,0,0,1-1.2,1,23.982,23.982,0,0,1-2.6,1.8l-.1-.1a15.1,15.1,0,0,1,1.8-2.6c.3-.4.7-.8,1-1.2a5.241,5.241,0,0,1,1.1-1l.2,1.1a12.638,12.638,0,0,0-2.6-1.3l-.6-.3.4-.5c.6-.8,1.2-1.7,1.9-2.5l2-2.5Z" style="fill: #2e3192"/>
    </symbol>
    <symbol id="basket-2" data-name="basket-2" viewBox="0 0 18.018 15.295">
      <path d="M10.19,11.4" style="fill: #fff;stroke: #2e3192;stroke-miterlimit: 10;stroke-width: 1.47000002861023px"/>
      <path d="M9.99,8.7l-7,1.3s-2,0-2.2-1.5a28.054,28.054,0,0,1,0-4.1,1.453,1.453,0,0,1,1.7-1h11.6l-1.1,6.1v.1a2.686,2.686,0,0,1,1.7,3.4h0v.1a2.508,2.508,0,0,1-3.2,1.3,3.282,3.282,0,0,1-1.5-1.8v-.1h-.2c-1.1.1-2.8.1-4.4.1h-.1a2.256,2.256,0,0,1-1.3,1.7,1.856,1.856,0,0,1-2-1.4v-.3H.29" style="fill: none;stroke: #2e3192;stroke-miterlimit: 10;stroke-width: 1.42999994754791px"/>
      <polyline points="14.19 3.603 14.59 1.303 17.89 0.703" style="fill: #fff;stroke: #2e3192;stroke-miterlimit: 10;stroke-width: 1.42999994754791px"/>
    </symbol>
    <symbol id="New_Symbol_1" data-name="New Symbol 1" viewBox="0 0 68.73 72.444">
      <g>
        <path d="M21.328,69.117A35.507,35.507,0,1,1,65.566,15.758c-.566.046-1.185.088-1.775.128A83.874,83.874,0,0,0,48.515,18.06C34.978,21.927,24.64,32.619,20.089,47.412l-.029.1C18.013,55.7,20.064,64.228,21.328,69.117Z" style="fill: #fff"/>
        <path d="M37.5,4A33.467,33.467,0,0,1,61.426,14.05a79.607,79.607,0,0,0-13.4,2.069l-.064.017-.064.019C33.766,20.192,22.932,31.371,18.177,46.823l-.031.1-.026.1c-1.605,6.422-.854,12.94.176,17.948A33.52,33.52,0,0,1,37.5,4m0-4A37.507,37.507,0,0,0,23.75,72.4a.323.323,0,0,0,.146.045c1.176,0-4.8-12.839-1.9-24.444,4-13,13-24,27-28,12-3,20.943-1.472,19.6-3.467A37.463,37.463,0,0,0,37.5,0Z" style="fill: #2e3192"/>
      </g>
    </symbol>
    <symbol id="New_Symbol" data-name="New Symbol" viewBox="0 0 104 104">
      <g>
        <path d="M52,101.5A49.5,49.5,0,1,1,101.5,52,49.556,49.556,0,0,1,52,101.5Z" style="fill: #fff"/>
        <path d="M52,5A47,47,0,1,1,5,52,47.053,47.053,0,0,1,52,5m0-5a52,52,0,1,0,52,52A52,52,0,0,0,52,0Z" style="fill: #2e3192"/>
      </g>
      <use width="18.018" height="15.295" transform="translate(14.867 23.052) scale(4.003 3.723)" xlink:href="#basket-2"/>
    </symbol>
    <symbol id="New_Symbol_2" data-name="New Symbol 2" viewBox="0 0 102.921 102.605">
      <circle cx="50.536" cy="50.085" r="27.5" style="fill: #fff;stroke: #2e3192;stroke-miterlimit: 10;stroke-width: 3.60655737704918px"/>
      <g>
        <path d="M14.143,16.155l8.637,7.836-1.012,1.115L13.131,17.27Z" style="fill: none;stroke: #2e3192;stroke-miterlimit: 10;stroke-width: 2.59459590911865px"/>
        <path d="M38.929,1.585,41.9,12.864l-1.456.383L37.473,1.968Z" style="fill: none;stroke: #2e3192;stroke-miterlimit: 10;stroke-width: 2.59459590911865px"/>
        <path d="M67.671,2.891,64.016,13.965l-1.429-.472L66.242,2.419Z" style="fill: none;stroke: #2e3192;stroke-miterlimit: 10;stroke-width: 2.59459590911865px"/>
        <path d="M91.028,19.632l-9.09,7.3L81,25.761l9.09-7.3Z" style="fill: none;stroke: #2e3192;stroke-miterlimit: 10;stroke-width: 2.59459590911865px"/>
        <path d="M101.5,46.449,89.9,47.588l-.147-1.5,11.6-1.139Z" style="fill: none;stroke: #2e3192;stroke-miterlimit: 10;stroke-width: 2.59459590911865px"/>
        <path d="M95.689,74.6,85.336,69.24l.693-1.337,10.353,5.364Z" style="fill: none;stroke: #2e3192;stroke-miterlimit: 10;stroke-width: 2.59459590911865px"/>
        <path d="M75.465,95.036,69.692,84.9,71,84.159l5.772,10.131Z" style="fill: none;stroke: #2e3192;stroke-miterlimit: 10;stroke-width: 2.59459590911865px"/>
        <path d="M47.376,101.148l.676-11.643,1.5.087-.676,11.643Z" style="fill: none;stroke: #2e3192;stroke-miterlimit: 10;stroke-width: 2.59459590911865px"/>
        <path d="M20.47,90.951,27.4,81.576l1.21.894L21.68,91.845Z" style="fill: none;stroke: #2e3192;stroke-miterlimit: 10;stroke-width: 2.59459590911865px"/>
        <path d="M3.479,67.781l10.914-4.1.529,1.409L4.009,69.19Z" style="fill: none;stroke: #2e3192;stroke-miterlimit: 10;stroke-width: 2.59459590911865px"/>
        <path d="M1.869,39.047l11.385,2.508-.323,1.47L1.546,40.517Z" style="fill: none;stroke: #2e3192;stroke-miterlimit: 10;stroke-width: 2.59459590911865px"/>
      </g>
    </symbol>
    <symbol id="Deleted_Symbol" data-name="Deleted Symbol" viewBox="0 0 101.822 102">
      <path d="M3.322,59.5h19l1,1v19h53v-29h11l-37-34L13.031,49.7l10.791.3-10.5.5h-9l-1-.5c0-43-1.5-47.5,47.5-47.5,33.5,0,48.5,21.714,48.5,48.5s-11,48.5-48.5,48.5c-31.5,0-46.2-14.491-48.322-39.319Z" style="fill: none;stroke: #2e3192;stroke-linecap: round;stroke-linejoin: round;stroke-width: 5px"/>
    </symbol>
  </defs>
  <title>mysvg</title>
  <use id="sunny-2-3" data-name="sunny-2" width="20.482" height="14.413" transform="translate(0 0) scale(4.687)" xlink:href="#sunny-2"/>
  <use width="106.029" height="64.065" transform="translate(115.986 3.744)" xlink:href="#cloud-2"/>
  <use width="20.504" height="10.883" transform="translate(237.739 8.569) scale(5)" xlink:href="#rainy-2"/>
  <use width="20.572" height="13.442" transform="translate(357.856 3.012) scale(4.875)" xlink:href="#cloudy-2"/>
  <use width="20.498" height="19.818" transform="translate(488.758 1.87) scale(3.926)" xlink:href="#tunder-2"/>
  <use width="18.018" height="15.295" transform="translate(6.069 120.332) scale(4.765)" xlink:href="#basket-2"/>
  <use width="68.73" height="72.444" transform="translate(243.461 107.776) scale(1.325)" xlink:href="#New_Symbol_1"/>
  <use width="104" height="104" transform="translate(116 103.776)" xlink:href="#New_Symbol"/>
  <use width="102.921" height="102.605" transform="translate(355.54 104.473)" xlink:href="#New_Symbol_2"/>
  <use width="101.822" height="102" transform="translate(477.089 103.776)" xlink:href="#Deleted_Symbol"/>
</svg>
