<?xml version="1.0" encoding="utf-8"?>
<!-- Generator: Adobe Illustrator 21.0.0, SVG Export Plug-In . SVG Version: 6.00 Build 0)  -->
<svg version="1.1" id="icon" xmlns="http://www.w3.org/2000/svg" xmlns:xlink="http://www.w3.org/1999/xlink" x="0px" y="0px"
	 viewBox="0 0 597 242" style="enable-background:new 0 0 597 242;" xml:space="preserve">
<style type="text/css">
	.st0{fill:#FFFFFF;stroke:#2E3192;stroke-width:1.47;stroke-miterlimit:10;}
	.st1{fill:none;stroke:#2E3192;stroke-width:1.43;stroke-miterlimit:10;}
	.st2{fill:#FFFFFF;stroke:#2E3192;stroke-width:1.43;stroke-miterlimit:10;}
	.st3{fill:#FFFFFF;stroke:#2E3192;stroke-width:6.918;stroke-miterlimit:10;}
	.st4{fill:#2E3192;stroke:#2E3192;stroke-width:0.6289;stroke-miterlimit:10;}
	.st5{fill:#FFFFFF;stroke:#2E3192;stroke-width:1.46;stroke-miterlimit:10;}
	.st6{fill:#2E3192;}
	.st7{fill:#2E3192;stroke:#2E3192;stroke-width:4.000000e-02;stroke-miterlimit:10;}
	.st8{fill:#FFF200;stroke:#2E3192;stroke-width:1.46;stroke-miterlimit:10;}
</style>
<symbol  id="basket-2" viewBox="-9 -7.7 18 15.3">
	<path class="st0" d="M1.2-3.8"/>
	<path class="st1" d="M1-1.1l-7-1.3c0,0-2,0-2.2,1.5c-0.1,1.4-0.1,2.7,0,4.1c0.2,0.7,1,1.2,1.7,1H5.1L4-1.9V-2
		c1.4-0.5,2.2-2,1.7-3.4l0,0c0,0,0-0.1,0-0.1C5.2-6.7,3.7-7.3,2.5-6.8C1.8-6.4,1.2-5.7,1-5v0.1H0.8C-0.3-5-2-5-3.6-5h-0.1
		C-3.8-5.7-4.3-6.4-5-6.7c-0.9-0.1-1.8,0.5-2,1.4V-5h-1.7"/>
	<polyline class="st2" points="5.2,4 5.6,6.3 8.9,6.9 	"/>
</symbol>
<symbol  id="cloud-2" viewBox="-265.1 19.8 106.1 63.9">
	<path class="st3" d="M-168.6,49.9c0.4-6-2.2-11.9-7.1-15.5c-3.9-2.5-8.6-3.3-13.1-1.9h-0.5c-0.1-0.2-0.2-0.4-0.3-0.6
		c-4.2-7.9-14-10.9-21.9-6.6c-2.4,1.2-4.5,2.8-6.3,4.8h-0.5c-4.8-2-10.3-1.8-15,0.5h-0.5c-4.1-1.5-8.5-1.5-12.6,0l-1,0.5
		c-8.8,3-13.5,12.5-10.6,21.3v0.5c2.3,4.2,5.6,7.7,9.7,10.2v1c1.4,7.8,7.3,14,15,16c9.7,1.8,19.5-2.9,24.2-11.6h0.5
		c0.1,0.1,0.2,0.2,0.3,0.2c7.2,6,17.9,5,23.9-2.2l1.9-1.9c0-0.5,0.5,0,0.5,0c7.2-0.6,12.9-6.3,13.4-13.5V49.9z"/>
	<path class="st4" d="M-263.8,54.7L-263.8,54.7l-1-0.5v0.5l0.9,0.5h0.5v-4.4h-0.5L-263.8,54.7z"/>
	<path class="st4" d="M-258.5,53.3c0-1.5-0.5-2.4-1.5-2.4c-1,0-1.5,1-1.5,2.4s0.5,2.4,1.5,2.4C-259,55.7-258.5,54.7-258.5,53.3z
		 M-260,51.8c0.5,0,1,0,1,1.5s0,1.9-1,1.9c-1,0-1-0.5-1-1.9C-260.9,52.3-260.4,51.8-260,51.8z"/>
	<path class="st4" d="M-256.6,55.2L-256.6,55.2l-1-0.5v0.5h1.9v-4.4h-1V55.2z"/>
	<path class="st4" d="M-251.3,53.8c0-1.5-0.5-2.4-1.5-2.4c-1,0-1.5,0.5-1.5,1.9s0.5,2.4,1.5,2.4C-251.8,55.7-251.3,55.2-251.3,53.8z
		 M-252.7,51.8c0.5,0,1,0,1,1.5s-0.5,1.9-1,1.9c-0.5,0-1-0.5-1-1.9C-253.7,52.3-253.2,51.8-252.7,51.8z"/>
	<path class="st4" d="M-249.7,55.2L-249.7,55.2l-1-0.5v0.5l1,0.5h0.5v-4.4h-0.5V55.2z"/>
	<path class="st4" d="M-244,53.3c0.1-1.2-0.7-2.3-1.9-2.4c-1,0-1.5,1-1.5,2.4s0.5,2.4,1.5,2.4C-244.7,55.6-243.9,54.5-244,53.3z
		 M-245.9,51.8c1,0,1,0,1,1.5s-0.5,1.9-1,1.9c-0.5,0-1-0.5-1-1.9C-246.9,52.3-246.9,51.8-245.9,51.8z"/>
	<path class="st4" d="M-242.1,50.9v4.4l0,0l-1-0.5v0.5h1.5v-4.4h-1H-242.1z"/>
	<path class="st4" d="M-235.8,53.3c0-1.5-0.5-1.9-1.5-1.9c-1,0-1.5,0.5-1.5,1.9s0.5,2.4,1.5,2.4C-236.3,55.7-235.8,54.7-235.8,53.3z
		 M-237.3,51.8c0.5,0,1,0,1,1.5s-0.5,1.9-1,1.9c-0.5,0-1-0.5-1-1.9C-238.2,52.3-237.8,51.8-237.3,51.8z"/>
	<path class="st4" d="M-231.9,53.3c0-1.5-0.5-2.4-1.5-2.4c-1,0-1.5,1-1.5,2.4s0.5,2.4,1.5,2.4C-232.4,55.7-231.9,54.7-231.9,53.3z
		 M-233.8,51.8c1,0,1.5,0,1.5,1.5s0,1.9-1,1.9c-1,0-1-0.5-1-1.9C-234.3,52.3-234.8,51.8-233.8,51.8z"/>
	<path class="st4" d="M-228.5,53.3c0-1.5-0.5-2.4-1.5-2.4c-1,0-1.5,1-1.5,2.4s0.5,2.4,1.5,2.4C-229,55.7-228.5,54.7-228.5,53.3z
		 M-230,51.8c0.5,0,1,0,1,1.5s0,1.9-1,1.9c-1,0-1-0.5-1-1.9C-230.9,52.3-230.4,51.8-230,51.8z"/>
	<path class="st4" d="M-226.6,55.2L-226.6,55.2l-1-0.5l0,0L-226.6,55.2h0.5v-4.4h-0.5V55.2z"/>
	<path class="st4" d="M-222.7,50.9v4.4l0,0l-1-0.5v0.5h1V50.9h-0.5H-222.7z"/>
	<path class="st4" d="M-218.8,54.7L-218.8,54.7l-1-0.5l-0.5,0.5l1,0.5h0.5v-4.4h-1L-218.8,54.7z"/>
	<path class="st4" d="M-215.8,55.2L-215.8,55.2l-1-0.5l0,0L-215.8,55.2h0.5v-4.4h-0.5V55.2z"/>
	<path class="st4" d="M-212.1,55.2L-212.1,55.2l-1-0.5v0.5h1.5v-4.4h-0.5V55.2z"/>
	<path class="st4" d="M-207.2,55.2L-207.2,55.2l-1-0.5v0.5h1.5v-4.4h-0.5V55.2z"/>
	<path class="st4" d="M-201.9,53.3c0.1-1.2-0.7-2.3-1.9-2.4c-1,0-1.5,1-1.5,2.4s1,2.4,1.5,2.4C-202.6,55.6-201.8,54.5-201.9,53.3z
		 M-203.8,51.8c1,0,1,0,1,1.5s-0.5,1.9-1,1.9c-0.5,0-0.5-0.5-0.5-1.9C-204.8,52.3-204.8,51.8-203.8,51.8z"/>
	<path class="st4" d="M-198.5,53.3c0-1.5-0.5-2.4-1.5-2.4c-1,0-1.5,1-1.5,2.4s0.5,2.4,1.5,2.4C-199,55.7-198.5,54.7-198.5,53.3z
		 M-200,51.8c0.5,0,0.5,0,0.5,1.5s-0.5,1.9-1,1.9c-0.5,0-1-0.5-1-1.9C-200.9,52.3-200.5,51.8-200,51.8z"/>
	<path class="st4" d="M-195,53.3c0-1.5-0.5-2.4-1.5-2.4c-1,0-1.5,1-1.5,2.4s0.5,2.4,1.5,2.4C-195.6,55.7-195,54.7-195,53.3z
		 M-196.4,51.8c0.5,0,1,0,1,1.5s-0.5,1.9-1,1.9c-0.5,0-1-0.5-1-1.9C-197.4,52.3-196.9,51.8-196.4,51.8z"/>
	<path class="st4" d="M-192.7,55.2L-192.7,55.2l-1-0.5v0.5H-192.7v-4.4h-0.5L-192.7,55.2z"/>
	<path class="st4" d="M-189.3,55.2L-189.3,55.2l-1-0.5v0.5h1.5v-4.4h-0.5L-189.3,55.2z"/>
	<path class="st4" d="M-184.5,53.3c0-1.5-0.5-2.4-1.5-2.4c-1,0-1.5,1-1.5,2.4s0.5,2.4,1.5,2.4C-185,55.7-184.5,54.7-184.5,53.3z
		 M-185.9,51.8c0.5,0,1,1,1,1.9c0,1,0,1.5-1,1.5c-1,0-1-0.5-1-1.9C-186.9,52.3-186.4,51.8-185.9,51.8z"/>
	<path class="st4" d="M-180.5,53.3c0-1.5-0.5-2.4-1.5-2.4s-1.5,1-1.5,2.4s0.5,2.4,1.5,2.4C-181.1,55.7-180.5,54.7-180.5,53.3z
		 M-181.9,51.8c0.5,0,1,0,1,1.5s-0.5,1.9-1,1.9s-1-0.5-1-1.9C-182.9,52.3-182.4,51.8-181.9,51.8z"/>
	<path class="st4" d="M-244,44.6c0-1.5-0.5-2.4-1.5-2.4c-1,0-1.5,1-1.5,2.4c0,1.5,0.5,2.4,1.5,2.4C-244.5,47-244,46-244,44.6z
		 M-245.4,43.1c0.5,0,1,0.5,1,1.9s-0.5,1.9-1,1.9c-0.5,0-1-0.5-1-1.9C-246.4,43.6-245.9,43.1-245.4,43.1z"/>
	<path class="st4" d="M-242.1,46.5L-242.1,46.5l-1-0.5v0.5l1.5,0.5h0.5v-4.4h-1V46.5z"/>
	<path class="st4" d="M-236.7,44.6c0-1.5-0.5-2.4-1.5-2.4c-1,0-1.5,1-1.5,2.4c0,1.5,0.5,2.4,1.5,2.4C-237.3,47-236.7,46-236.7,44.6z
		 M-238.7,43.1c0.5,0,1,0.5,1,1.9s-0.5,1.9-1,1.9c-0.5,0-1-1-1-1.9C-239.6,43.6-239.2,43.1-238.7,43.1z"/>
	<path class="st4" d="M-235.1,46.5L-235.1,46.5l-1-0.5v0.5l1,0.5h0.5v-4.4h-0.5V46.5z"/>
	<path class="st4" d="M-230,44.6c0-1.5-0.5-2.4-1.5-2.4c-1,0-1.5,1-1.5,2.4c0,1.5,0.5,2.4,1.5,2.4C-230.3,47-230,46-230,44.6z
		 M-231.4,43.1c0.5,0,1,0.5,1,1.9s-0.5,1.9-1,1.9c-0.5,0-1-1-1-1.9C-232.4,43.6-231.9,43.1-231.4,43.1z"/>
	<path class="st4" d="M-228,46.5L-228,46.5l-1-0.5v0.5l1,0.5h0.5v-4.4h-0.5V46.5z"/>
	<path class="st4" d="M-222.7,44.6c0-1.5-0.5-2.4-1.5-2.4c-1,0-1.5,1-1.5,2.4c0,1.5,0.5,2.4,1.5,2.4C-223.2,47-222.7,46-222.7,44.6z
		 M-225.5,45.1c0-1.5-0.1-1.9,0.8-1.9s1,1,1,1.9c0,1,0,1.5-1,1.5C-225.1,46.5-225.5,46.5-225.5,45.1z"/>
	<path class="st4" d="M-220.6,46.5L-220.6,46.5l-1-0.5v0.5l1,0.5h0.5v-4.4h-0.5V46.5z"/>
	<path class="st4" d="M-214,45.1c0-1.9-0.5-2.9-1.5-2.9c-1,0-1.5,1-1.5,2.4c0,1.5,0.5,2.4,1.5,2.4C-215,47-214,47-214,45.1z
		 M-215.5,43.1c0.5,0,1,0.5,1,1.9s-0.5,1.9-1,1.9c-0.5,0-1-0.5-1-1.9C-216.4,43.6-215.9,43.1-215.5,43.1z"/>
	<path class="st4" d="M-210.6,45.1c0-1.5-0.5-2.4-1.5-2.4s-1.5,1-1.5,2.4s0.5,1.9,1.5,1.9C-211,47-210.6,46.5-210.6,45.1z
		 M-212.1,43.1c0.5,0,1,0.5,1,1.9s0,1.9-1,1.9s-1-1-1-1.9C-213,43.6-212.5,43.1-212.1,43.1z"/>
	<path class="st4" d="M-207.2,45.1c0-1.5-0.5-2.4-1.5-2.4c-1,0-1.5,1-1.5,2.4s0.5,1.9,1.5,1.9C-207.7,47-207.2,46.5-207.2,45.1z
		 M-208.7,43.1c0.5,0,1,0.5,1,1.9s-0.5,1.9-1,1.9c-0.5,0-1-1-1-1.9C-209.6,43.6-209.2,43.1-208.7,43.1z"/>
	<path class="st4" d="M-205.3,46.5L-205.3,46.5l-1-0.5v0.5l1,0.5h1v-4.4h-1V46.5z"/>
	<path class="st4" d="M-201.3,46.5L-201.3,46.5l-1-0.5v0.5l1,0.5l0,0v-4.4h-0.6L-201.3,46.5z"/>
	<path class="st4" d="M-198,46.5L-198,46.5l-1-0.5v0.5l1,0.5h0.5v-4.4h-0.5V46.5z"/>
	<path class="st4" d="M-194.6,46.5L-194.6,46.5l-0.5-0.5v0.5l1,0.5h0.5v-4.4h-0.5L-194.6,46.5z"/>
	<path class="st4" d="M-191.3,46.5L-191.3,46.5l-0.5-0.5v0.5l1,0.5h1v-4.4h-1L-191.3,46.5z"/>
	<path class="st4" d="M-185.9,46.5L-185.9,46.5l-1-0.5v0.5l1,0.5h1v-4.4h-1V46.5z"/>
	<path class="st4" d="M-180.5,45.1c0-1.5-0.5-2.4-1.5-2.4s-1.5,1-1.5,2.4s0.5,1.9,1.5,1.9C-181.1,47-180.5,46.5-180.5,45.1z
		 M-181.9,43.1c0.5,0,1,0.5,1,1.9s0,1.9-1,1.9c-1,0-1-1-1-1.9C-182.9,43.6-182.4,43.1-181.9,43.1z"/>
	<path class="st4" d="M-177.2,45.1c0-1.5-0.5-2.4-1.5-2.4c-1,0-1.5,1-1.5,2.4s0.5,1.9,1.5,1.9C-177.7,47-177.2,46.5-177.2,45.1z
		 M-178.7,43.1c0.5,0,1,0.5,1,1.9s-0.5,1.9-1,1.9c-0.5,0-1-1-1-1.9C-179.7,43.6-179.2,43.1-178.7,43.1z"/>
	<path class="st4" d="M-173.8,45.1c0-1.5-0.5-2.4-1.5-2.4s-1.5,1-1.5,2.4s1,1.9,1.5,1.9C-174.3,47-173.8,46.5-173.8,45.1z
		 M-175.3,43.1c1,0,1,0.5,1,1.9s-0.5,1.9-1,1.9s-0.5-1-0.5-1.9C-176.3,43.6-176.3,43.1-175.3,43.1z"/>
	<path class="st4" d="M-171.4,42.6v3.9l0,0l-1-0.5v0.5l1,0.5h0.5v-4.4h-1H-171.4z"/>
	<path class="st4" d="M-167.9,46.5L-167.9,46.5l-1-0.5v0.5l1,0.5h0.5v-4.4h-0.6L-167.9,46.5z"/>
	<path class="st4" d="M-162.7,44.6c0-1.5-0.5-2.4-1.5-2.4s-1.5,1-1.5,2.4c0,1.5,0.5,2.4,1.5,2.4C-163.7,47-162.7,46-162.7,44.6z
		 M-164.2,43.1c0.5,0,1,0.5,1,1.9s-0.5,1.9-1,1.9s-1-0.5-1-1.9C-165.1,43.6-164.7,43.1-164.2,43.1z"/>
	<path class="st4" d="M-159.3,44.6c0-1.5-0.5-2.4-1.5-2.4s-1.5,1-1.5,2.4c0,1.5,0.5,2.4,1.5,2.4C-159.8,47-159.3,46-159.3,44.6z
		 M-160.8,43.1c0.5,0,1,0.5,1,1.9s-0.5,1.9-1,1.9s-1-1-1-1.9C-161.8,43.6-161.3,43.1-160.8,43.1z"/>
</symbol>
<symbol  id="cloudy-2" viewBox="-10.3 -6.7 20.6 13.4">
	<path class="st5" d="M9.5-0.3C9.7-1.6,9.1-2.9,8-3.6C7.2-4.1,6.2-4.3,5.2-4H5.1c0,0,0-0.1-0.1-0.1c-0.9-1.7-3-2.4-4.6-1.5
		c-0.5,0.2-1,0.6-1.2,1.1h-0.1c-1-0.5-2.2-0.4-3.2,0.1h-0.1C-5-4.8-6-4.8-6.9-4.5l-0.2,0.1c0,0,0,0,0,0C-9-3.8-10-1.8-9.4,0.1v0.1
		C-8.9,1-8.2,1.7-7.5,2.3l0.1,0.2c0.2,1.7,1.5,3,3.1,3.4c2,0.4,4.1-0.6,5.1-2.4h0.1c1.5,1.3,3.8,1.2,5.2-0.3C6.2,3,6.3,2.9,6.4,2.8
		c0-0.1,0.1,0,0.1,0C8.1,2.6,9.3,1.4,9.5-0.3L9.5-0.3z"/>
</symbol>
<symbol  id="rainy-2" viewBox="-10.5 -4.8 21 10.9">
	<path class="st5" d="M9.3-1v0.2C9.1,0.7,7.9,1.9,6.4,2.1H6.3C5.2,3.8,2.9,4.3,1.2,3.2C1.1,3.1,0.9,3,0.8,2.9H0.7
		c-0.9,1.9-3.1,2.9-5.2,2.4c-1.6-0.4-2.8-1.7-3.1-3.4V1.7c-0.8-0.5-1.5-1.2-1.9-2.1c-0.1-0.2-0.2-0.5-0.2-0.7H9.4
		C9.4-1.1,9.3-1,9.3-1z"/>
	<path class="st6" d="M-2-2.8l-0.3-0.3l0.6-0.6c0.2-0.2,0.3-0.4,0.5-0.6L-0.8-4C-1-3.8-1.3-3.6-1.5-3.4C-1.7-3.2-1.9-3-2-2.8z"/>
	<path class="st6" d="M-4.8-2.7l-0.8-0.8C-5.5-3.7-5.3-3.9-5-4c0.2-0.2,0.5-0.4,0.7-0.6L-3.7-4C-3.8-3.7-4-3.5-4.2-3.3
		C-4.4-3.1-4.6-2.9-4.8-2.7z"/>
	<path class="st6" d="M-7.9-2.8l-0.4-0.4c0.3-0.5,0.6-1,1-1.4l0.7,0.7C-7.1-3.6-7.5-3.2-7.9-2.8z"/>
	<path class="st6" d="M7.2-2.8L6.5-3.5c0.4-0.3,0.9-0.6,1.4-0.9L8.2-4C7.9-3.6,7.5-3.2,7.2-2.8z"/>
	<path class="st7" d="M4.3-2.6l-1-1C3.6-4,4-4.4,4.5-4.7l1,0.9L4.3-2.6z"/>
	<path class="st6" d="M1.2-2.8L0.5-3.4C0.6-3.6,0.8-3.8,1-4.1l0.5-0.6l0.9,0.8L1.8-3.3L1.2-2.8z"/>
</symbol>
<symbol  id="sunny-2" viewBox="-10.2 -7.2 20.5 14.4">
	<circle class="st8" cx="4.9" cy="2" r="4.5"/>
	<path class="st5" d="M9.5-0.8C9.7-2.1,9.1-3.4,8-4.1C7.2-4.6,6.2-4.8,5.2-4.5H5.1c0-0.1,0-0.1-0.1-0.2C4.2-6.3,2.2-6.9,0.5-6.1
		C0-5.9-0.5-5.5-0.8-5h-0.1c-1-0.4-2.2-0.4-3.2,0.1c-0.1,0.1-0.1,0.1-0.2,0.1C-5.2-5.2-6.2-5.2-7-4.9l-0.1,0.1c0,0,0,0,0,0
		C-9-4.1-9.9-2.1-9.3-0.3l0,0c0.5,0.8,1.1,1.5,1.8,2.1V2C-7.2,3.7-6,5-4.3,5.4c1.9,0.4,3.8-0.4,4.8-2V3.2c0.1,0.1,0.1,0.2,0.1,0.3
		C0.5,2.2,1,0.9,2,0c1.1-0.9,2.6-1.2,4-0.9l0.3,0.1c1,0.2,1.8,0.7,2.6,1.3L9,0.6h0.1C9.3,0.2,9.4-0.3,9.5-0.8L9.5-0.8z"/>
</symbol>
<symbol  id="tunder-2" viewBox="-10.2 -9.2 20.5 19.8">
	<path class="st5" d="M9.5,3.5c0.1-1.2-0.4-2.4-1.4-3.2C7.3-0.2,6.2-0.4,5.3-0.1H5.2c0,0,0-0.1-0.1-0.1c-0.9-1.7-3-2.4-4.6-1.5
		C0-1.5-0.5-1.1-0.8-0.6h-0.1C-1.9-1-3.1-1-4.1-0.5h-0.1C-5-0.9-6-0.9-6.9-0.6l-0.2,0.1c-0.1,0-0.1,0-0.2,0.1C-9,0.2-10,2.2-9.3,4
		v0.1c0.4,0.8,1,1.6,1.8,2.1l0.1,0.2c0.2,1.7,1.5,3,3.1,3.4c2,0.4,4.1-0.6,5-2.4h0.1C2.4,8.7,4.7,8.6,6,7.1C6.1,7,6.2,6.8,6.3,6.7
		c0-0.1,0.1,0,0.1,0c1.6-0.2,2.8-1.4,3-3L9.5,3.5z"/>
	<path class="st6" d="M1.8,1.7L0.4-1.1C-0.2-2-0.7-2.9-1.3-3.9l-0.2,0.8c0.9-0.3,1.9-0.7,2.8-1l1-0.3L1.6-5.2C1.2-5.6,0.9-6,0.5-6.4
		c-0.4-0.4-0.8-0.7-1.2-1C-1.5-8-2.4-8.7-3.3-9.2l-0.1,0.1c0.5,0.9,1.1,1.8,1.8,2.6c0.3,0.4,0.7,0.8,1,1.2c0.3,0.4,0.7,0.7,1.1,1
		l0.2-1.1C-0.1-4.9-1-4.4-1.9-4.1l-0.6,0.3l0.4,0.5c0.6,0.8,1.2,1.7,1.9,2.5L1.8,1.7L1.8,1.7z"/>
</symbol>
<use xlink:href="#cloud-2"  width="106.1" height="63.9" id="cloud" x="-265.1" y="19.8" transform="matrix(1.0119 0 0 -1.0119 276 111)" style="overflow:visible;"/>
<use xlink:href="#sunny-2"  width="20.5" height="14.4" id="sunny" x="-10.2" y="-7.2" transform="matrix(5.4103 0 0 -5.4103 179.6667 60.4567)" style="overflow:visible;"/>
<use xlink:href="#rainy-2"  width="21" height="10.9" id="rainy" x="-10.5" y="-4.8" transform="matrix(5.0243 0 0 -5.0243 300.3333 60.4938)" style="overflow:visible;"/>
<use xlink:href="#cloudy-2"  width="20.6" height="13.4" id="cloudy" x="-10.3" y="-6.7" transform="matrix(5.021 0 0 -5.021 420.3333 59.79)" style="overflow:visible;"/>
<use xlink:href="#tunder-2"  width="20.5" height="19.8" id="tunder" x="-10.2" y="-9.2" transform="matrix(4.7984 0 0 -4.7984 540.3333 61.1867)" style="overflow:visible;"/>
<use xlink:href="#basket-2"  width="18" height="15.3" id="basket" x="-9" y="-7.7" transform="matrix(5.735 0 0 -5.735 60.3333 179.7785)" style="overflow:visible;"/>
</svg>
