<?xml version="1.0" encoding="utf-8"?>
<!-- Generator: Adobe Illustrator 21.0.0, SVG Export Plug-In . SVG Version: 6.00 Build 0)  -->
<svg version="1.1" id="icon" xmlns="http://www.w3.org/2000/svg" xmlns:xlink="http://www.w3.org/1999/xlink" x="0px" y="0px"
	 viewBox="0 0 597 242" style="enable-background:new 0 0 597 242;" xml:space="preserve">
<style type="text/css">
	.st0{fill:none;stroke:#2E3192;stroke-width:8;stroke-linecap:round;stroke-linejoin:round;stroke-miterlimit:10;}
	.st1{fill:none;stroke:#2E3192;stroke-width:2;stroke-miterlimit:10;}
	.st2{fill:#2E3192;stroke:#2E3192;stroke-width:2;stroke-miterlimit:10;}
	.st3{fill:#FFFFFF;stroke:#2E3192;stroke-width:2;stroke-miterlimit:10;}
	.st4{fill:#FFFFFF;stroke:#2E3192;stroke-width:7;stroke-miterlimit:10;}
	.st5{fill:none;stroke:#2E3192;stroke-width:7;stroke-miterlimit:10;}
	.st6{fill:#FFFFFF;stroke:#2E3192;stroke-width:1.47;stroke-miterlimit:10;}
	.st7{fill:none;stroke:#2E3192;stroke-width:1.43;stroke-miterlimit:10;}
	.st8{fill:#FFFFFF;stroke:#2E3192;stroke-width:1.43;stroke-miterlimit:10;}
	.st9{fill:#FFFFFF;stroke:#2E3192;stroke-width:6.918;stroke-miterlimit:10;}
	.st10{fill:#2E3192;stroke:#2E3192;stroke-width:0.6289;stroke-miterlimit:10;}
	.st11{fill:#FFFFFF;stroke:#2E3192;stroke-width:1.46;stroke-miterlimit:10;}
	.st12{fill:#2E3192;}
	.st13{fill:#2E3192;stroke:#2E3192;stroke-width:4.000000e-02;stroke-miterlimit:10;}
	.st14{fill:#FFF200;stroke:#2E3192;stroke-width:1.46;stroke-miterlimit:10;}
</style>
<symbol  id="Deleted_Symbol">
</symbol>
<symbol  id="Deleted_Symbol_2" viewBox="-51.6 -52.5 104 105">
	<path class="st0" d="M-27.6-28.5h53v29h11l-37,34L-37.9,1.3L-27.1,1L-27.6-28.5z"/>
	<path class="st0" d="M-47.6,1c0,31.2,16.8,47.5,47.5,47.5c33.5,0,48.5-21.7,48.5-48.5s-11-48.5-48.5-48.5
		C-31.6-48.5-47.6-30.2-47.6,1z"/>
</symbol>
<symbol  id="New_Symbol" viewBox="-53 -53 106 106">
	<g>
		<path class="st1" d="M0-49.5c-27.3,0-49.5,22.2-49.5,49.5S-27.3,49.5,0,49.5S49.5,27.3,49.5,0S27.3-49.5,0-49.5z"/>
		<path class="st2" d="M0,47c25.9,0,47-21.1,47-47S25.9-47,0-47S-47-25.9-47,0S-25.9,47,0,47 M0,52c-28.7,0-52-23.3-52-52
			s23.3-52,52-52S52-28.7,52,0S28.7,52,0,52L0,52z"/>
	</g>
	
		<use xlink:href="#Deleted_Symbol"  width="-32766" height="-32766" x="16383" y="16383" transform="matrix(3.9994 0 0 3.7195 -1.0667 0.6599)" style="overflow:visible;"/>
	
		<use xlink:href="#basket-2"  width="18" height="15.3" x="-9" y="-7.6" transform="matrix(3.4329 0 0 3.4329 1.8108 0.7113)" style="overflow:visible;"/>
</symbol>
<symbol  id="New_Symbol_1" viewBox="-35.4 -37.2 70.7 74.4">
	<g>
		<path class="st3" d="M-13-32.9c-11.8,6-19.3,18.1-19.3,31.6c0,19.6,15.9,35.5,35.5,35.5c11,0,21.4-5.1,28.1-13.8
			c-0.6,0-1.2-0.1-1.8-0.1c-3.6-0.2-9-0.6-15.3-2.2C0.6,14.3-9.7,3.6-14.3-11.2v-0.1C-16.4-19.5-14.3-28-13-32.9z"/>
		<path class="st2" d="M3.1,32.2c9.1,0,17.7-3.7,23.9-10c-3.5-0.3-8.2-0.8-13.4-2.1h-0.1h-0.1c-14.1-4-25-15.2-29.7-30.7v-0.1v-0.1
			c-1.6-6.4-0.9-12.9,0.2-17.9C-25-22.5-30.4-12.4-30.4-1.2C-30.4,17.2-15.3,32.2,3.1,32.2 M3.1,36.2c-20.7,0-37.5-16.8-37.5-37.5
			c0-15.9,9.8-29.4,23.8-34.9c0.1,0,0.1,0,0.1,0c1.2,0-4.8,12.8-1.9,24.4c4,13,13,24,27,28c12,3,20.9,1.5,19.6,3.5
			C27.5,29.7,16.1,36.2,3.1,36.2L3.1,36.2z"/>
	</g>
</symbol>
<symbol  id="New_Symbol_2" viewBox="-53.9 -53.7 107.7 107.6">
	<circle class="st4" cx="-0.8" cy="1.1" r="27.5"/>
	<g>
		<path class="st5" d="M-37.2,35l8.6-7.8l-1-1.1l-8.6,7.8L-37.2,35z"/>
		<path class="st5" d="M-12.4,49.6l3-11.3l-1.5-0.4l-3,11.3L-12.4,49.6z"/>
		<path class="st5" d="M16.3,48.3l-3.7-11.1l-1.4,0.5l3.7,11.1L16.3,48.3z"/>
		<path class="st5" d="M39.7,31.6l-9.1-7.3l-0.9,1.2l9.1,7.3L39.7,31.6z"/>
		<path class="st5" d="M50.1,4.8L38.5,3.6l-0.1,1.5L50,6.2L50.1,4.8z"/>
		<path class="st5" d="M44.3-23.4L33.9-18l0.7,1.3L45-22.1L44.3-23.4z"/>
		<path class="st5" d="M24.1-43.8l-5.8,10.1l1.3,0.7l5.8-10.1L24.1-43.8z"/>
		<path class="st5" d="M-4-49.9l0.7,11.6l1.5-0.1L-2.5-50L-4-49.9z"/>
		<path class="st5" d="M-30.9-39.7l6.9,9.4l1.2-0.9l-6.9-9.4L-30.9-39.7z"/>
		<path class="st5" d="M-47.9-16.6l10.9,4.1l0.5-1.4L-47.4-18L-47.9-16.6z"/>
		<path class="st5" d="M-49.5,12.2l11.4-2.5l-0.3-1.5l-11.4,2.5L-49.5,12.2z"/>
	</g>
</symbol>
<symbol  id="basket-2" viewBox="-9 -7.6 18 15.3">
	<path class="st6" d="M1.2-3.8"/>
	<path class="st7" d="M1-1.1l-7-1.3c0,0-2,0-2.2,1.5c-0.1,1.4-0.1,2.7,0,4.1c0.2,0.7,1,1.2,1.7,1H5.1L4-1.9V-2
		c1.4-0.5,2.2-2,1.7-3.4l0,0v-0.1c-0.5-1.2-2-1.8-3.2-1.3C1.8-6.4,1.2-5.7,1-5v0.1H0.8C-0.3-5-2-5-3.6-5h-0.1
		C-3.8-5.7-4.3-6.4-5-6.7c-0.9-0.1-1.8,0.5-2,1.4V-5h-1.7"/>
	<polyline class="st8" points="5.2,4 5.6,6.3 8.9,6.9 	"/>
</symbol>
<symbol  id="cloud-2" viewBox="-53 -32 106 64.1">
	<path class="st9" d="M43.4-2c0.4-6-2.2-11.9-7.1-15.5c-3.9-2.5-8.6-3.3-13.1-1.9h-0.5c-0.1-0.2-0.2-0.4-0.3-0.6
		c-4.2-7.9-14-10.9-21.9-6.6c-2.4,1.2-4.5,2.8-6.3,4.8h-0.5c-4.8-2-10.3-1.8-15,0.5h-0.5c-4.1-1.5-8.5-1.5-12.6,0l-1,0.5
		c-8.8,3-13.5,12.5-10.6,21.3V1c2.3,4.2,5.6,7.7,9.7,10.2v1c1.4,7.8,7.3,14,15,16c9.7,1.8,19.5-2.9,24.2-11.6h0.5
		c0.1,0.1,0.2,0.2,0.3,0.2c7.2,6,17.9,5,23.9-2.2l1.9-1.9c0-0.5,0.5,0,0.5,0c7.2-0.6,12.9-6.3,13.4-13.5L43.4-2L43.4-2z"/>
	<path class="st10" d="M-51.7,2.8L-51.7,2.8l-1-0.5v0.5l0.9,0.5h0.5v-4.4h-0.5L-51.7,2.8z"/>
	<path class="st10" d="M-46.5,1.4C-46.5-0.1-47-1-48-1s-1.5,1-1.5,2.4S-49,3.8-48,3.8S-46.5,2.8-46.5,1.4z M-48-0.1c0.5,0,1,0,1,1.5
		s0,1.9-1,1.9s-1-0.5-1-1.9C-48.8,0.4-48.3-0.1-48-0.1z"/>
	<path class="st10" d="M-44.6,3.3L-44.6,3.3l-1-0.5v0.5h1.9v-4.4h-1L-44.6,3.3L-44.6,3.3z"/>
	<path class="st10" d="M-39.3,1.9c0-1.5-0.5-2.4-1.5-2.4s-1.5,0.5-1.5,1.9s0.5,2.4,1.5,2.4S-39.3,3.3-39.3,1.9z M-40.7-0.1
		c0.5,0,1,0,1,1.5s-0.5,1.9-1,1.9s-1-0.5-1-1.9C-41.7,0.4-41.2-0.1-40.7-0.1z"/>
	<path class="st10" d="M-37.7,3.3L-37.7,3.3l-1-0.5v0.5l1,0.5h0.5v-4.4h-0.5V3.3z"/>
	<path class="st10" d="M-32,1.4c0.1-1.2-0.7-2.3-1.9-2.4c-1,0-1.5,1-1.5,2.4s0.5,2.4,1.5,2.4C-32.7,3.7-31.8,2.6-32,1.4z M-33.8-0.1
		c1,0,1,0,1,1.5s-0.5,1.9-1,1.9s-1-0.5-1-1.9C-34.8,0.4-34.8-0.1-33.8-0.1z"/>
	<path class="st10" d="M-30.1-1v4.4l0,0l-1-0.5v0.5h1.5V-1h-1H-30.1z"/>
	<path class="st10" d="M-23.8,1.4c0-1.5-0.5-1.9-1.5-1.9s-1.5,0.5-1.5,1.9s0.5,2.4,1.5,2.4S-23.8,2.8-23.8,1.4z M-25.3-0.1
		c0.5,0,1,0,1,1.5s-0.5,1.9-1,1.9s-1-0.5-1-1.9C-26.2,0.4-25.8-0.1-25.3-0.1z"/>
	<path class="st10" d="M-19.8,1.4c0-1.5-0.5-2.4-1.5-2.4s-1.5,1-1.5,2.4s0.5,2.4,1.5,2.4S-19.8,2.8-19.8,1.4z M-21.8-0.1
		c1,0,1.5,0,1.5,1.5s0,1.9-1,1.9s-1-0.5-1-1.9C-22.3,0.4-22.8-0.1-21.8-0.1z"/>
	<path class="st10" d="M-16.5,1.4C-16.5-0.1-17-1-18-1s-1.5,1-1.5,2.4S-19,3.8-18,3.8S-16.5,2.8-16.5,1.4z M-18-0.1c0.5,0,1,0,1,1.5
		s0,1.9-1,1.9s-1-0.5-1-1.9C-18.8,0.4-18.3-0.1-18-0.1z"/>
	<path class="st10" d="M-14.6,3.3L-14.6,3.3l-1-0.5l0,0L-14.6,3.3h0.5v-4.4h-0.5V3.3z"/>
	<path class="st10" d="M-10.7-1v4.4l0,0l-1-0.5v0.5h1V-1h-0.5H-10.7z"/>
	<path class="st10" d="M-6.8,2.8L-6.8,2.8l-1-0.5l-0.5,0.5l1,0.5h0.5v-4.4h-1L-6.8,2.8z"/>
	<path class="st10" d="M-3.8,3.3L-3.8,3.3l-1-0.5l0,0L-3.8,3.3h0.5v-4.4h-0.5V3.3z"/>
	<path class="st10" d="M-0.1,3.3L-0.1,3.3l-1-0.5v0.5h1.5v-4.4h-0.5C-0.1-1.1-0.1,3.3-0.1,3.3z"/>
	<path class="st10" d="M4.8,3.3L4.8,3.3l-1-0.5v0.5h1.5v-4.4H4.8V3.3z"/>
	<path class="st10" d="M10.2,1.4C10.3,0.2,9.5-0.9,8.3-1c-1,0-1.5,1-1.5,2.4s1,2.4,1.5,2.4C9.4,3.7,10.2,2.6,10.2,1.4z M8.2-0.1
		c1,0,1,0,1,1.5s-0.5,1.9-1,1.9S7.7,2.8,7.7,1.4C7.2,0.4,7.2-0.1,8.2-0.1z"/>
	<path class="st10" d="M13.5,1.4C13.5-0.1,13-1,12-1s-1.5,1-1.5,2.4S11,3.8,12,3.8S13.5,2.8,13.5,1.4z M12-0.1c0.5,0,0.5,0,0.5,1.5
		s-0.5,1.9-1,1.9s-1-0.5-1-1.9C11.2,0.4,11.5-0.1,12-0.1z"/>
	<path class="st10" d="M17,1.4C17-0.1,16.5-1,15.5-1S14,0,14,1.4s0.5,2.4,1.5,2.4C16.4,3.8,17,2.8,17,1.4z M15.7-0.1
		c0.5,0,1,0,1,1.5s-0.5,1.9-1,1.9s-1-0.5-1-1.9C14.7,0.4,15.2-0.1,15.7-0.1z"/>
	<path class="st10" d="M19.3,3.3L19.3,3.3l-1-0.5v0.5H19.3v-4.4h-0.5L19.3,3.3z"/>
	<path class="st10" d="M22.7,3.3L22.7,3.3l-1-0.5v0.5h1.5v-4.4h-0.5V3.3z"/>
	<path class="st10" d="M27.5,1.4C27.5-0.1,27-1,26-1s-1.5,1-1.5,2.4S25,3.8,26,3.8S27.5,2.8,27.5,1.4z M26.2-0.1c0.5,0,1,1,1,1.9
		c0,1,0,1.5-1,1.5s-1-0.5-1-1.9C25.2,0.4,25.7-0.1,26.2-0.1z"/>
	<path class="st10" d="M31.5,1.4C31.5-0.1,31-1,30-1s-1.5,1-1.5,2.4S29,3.8,30,3.8C30.9,3.8,31.5,2.8,31.5,1.4z M30.2-0.1
		c0.5,0,1,0,1,1.5s-0.5,1.9-1,1.9s-1-0.5-1-1.9C29.2,0.4,29.7-0.1,30.2-0.1z"/>
	<path class="st10" d="M-32-7.3c0-1.5-0.5-2.4-1.5-2.4s-1.5,1-1.5,2.4c0,1.5,0.5,2.4,1.5,2.4S-32-5.9-32-7.3z M-33.3-8.8
		c0.5,0,1,0.5,1,1.9s-0.5,1.9-1,1.9s-1-0.5-1-1.9S-33.8-8.8-33.3-8.8z"/>
	<path class="st10" d="M-30.1-5.4L-30.1-5.4l-1-0.5v0.5l1.5,0.5h0.5v-4.4h-1V-5.4z"/>
	<path class="st10" d="M-24.7-7.3c0-1.5-0.5-2.4-1.5-2.4s-1.5,1-1.5,2.4c0,1.5,0.5,2.4,1.5,2.4C-25.3-4.9-24.7-5.9-24.7-7.3z
		 M-26.7-8.8c0.5,0,1,0.5,1,1.9s-0.5,1.9-1,1.9s-1-1-1-1.9C-27.6-8.3-27.2-8.8-26.7-8.8z"/>
	<path class="st10" d="M-23.1-5.4L-23.1-5.4l-1-0.5v0.5l1,0.5h0.5v-4.4h-0.5V-5.4z"/>
	<path class="st10" d="M-18-7.3c0-1.5-0.5-2.4-1.5-2.4s-1.5,1-1.5,2.4c0,1.5,0.5,2.4,1.5,2.4C-18.3-4.9-18-5.9-18-7.3z M-19.3-8.8
		c0.5,0,1,0.5,1,1.9s-0.5,1.9-1,1.9s-1-1-1-1.9C-20.3-8.3-19.8-8.8-19.3-8.8z"/>
	<path class="st10" d="M-16-5.4L-16-5.4l-1-0.5v0.5l1,0.5h0.5v-4.4H-16V-5.4z"/>
	<path class="st10" d="M-10.7-7.3c0-1.5-0.5-2.4-1.5-2.4s-1.5,1-1.5,2.4c0,1.5,0.5,2.4,1.5,2.4S-10.7-5.9-10.7-7.3z M-13.5-6.8
		c0-1.5-0.1-1.9,0.8-1.9s1,1,1,1.9c0,1,0,1.5-1,1.5C-13.1-5.4-13.5-5.4-13.5-6.8z"/>
	<path class="st10" d="M-8.6-5.4L-8.6-5.4l-1-0.5v0.5l1,0.5h0.5v-4.4h-0.5V-5.4z"/>
	<path class="st10" d="M-2-6.8c0-1.9-0.5-2.9-1.5-2.9S-5-8.7-5-7.3c0,1.5,0.5,2.4,1.5,2.4C-3-4.9-2-4.9-2-6.8z M-3.5-8.8
		c0.5,0,1,0.5,1,1.9S-3-5-3.5-5s-1-0.5-1-1.9C-4.3-8.3-3.8-8.8-3.5-8.8z"/>
	<path class="st10" d="M1.4-6.8c0-1.5-0.5-2.4-1.5-2.4s-1.5,1-1.5,2.4s0.5,1.9,1.5,1.9C1-4.9,1.4-5.4,1.4-6.8z M-0.1-8.8
		c0.5,0,1,0.5,1,1.9s0,1.9-1,1.9s-1-1-1-1.9C-1-8.3-0.5-8.8-0.1-8.8z"/>
	<path class="st10" d="M4.8-6.8c0-1.5-0.5-2.4-1.5-2.4s-1.5,1-1.5,2.4s0.5,1.9,1.5,1.9S4.8-5.4,4.8-6.8z M3.3-8.8c0.5,0,1,0.5,1,1.9
		S3.8-5,3.3-5s-1-1-1-1.9C2.4-8.3,2.8-8.8,3.3-8.8z"/>
	<path class="st10" d="M6.7-5.4L6.7-5.4l-1-0.5v0.5l1,0.5h1v-4.4h-1V-5.4z"/>
	<path class="st10" d="M10.7-5.4L10.7-5.4l-1-0.5v0.5l1,0.5l0,0v-4.4h-0.6L10.7-5.4z"/>
	<path class="st10" d="M14-5.4L14-5.4l-1-0.5v0.5l1,0.5h0.5v-4.4H14V-5.4z"/>
	<path class="st10" d="M17.4-5.4L17.4-5.4l-0.5-0.5v0.5l1,0.5h0.5v-4.4h-0.5L17.4-5.4z"/>
	<path class="st10" d="M20.7-5.4L20.7-5.4l-0.5-0.5v0.5l1,0.5h1v-4.4h-1L20.7-5.4z"/>
	<path class="st10" d="M26.2-5.4L26.2-5.4l-1-0.5v0.5l1,0.5h1v-4.4h-1V-5.4z"/>
	<path class="st10" d="M31.5-6.8c0-1.5-0.5-2.4-1.5-2.4s-1.5,1-1.5,2.4S29-4.9,30-4.9C30.9-4.9,31.5-5.4,31.5-6.8z M30.2-8.8
		c0.5,0,1,0.5,1,1.9s0,1.9-1,1.9s-1-1-1-1.9C29.2-8.3,29.7-8.8,30.2-8.8z"/>
	<path class="st10" d="M34.8-6.8c0-1.5-0.5-2.4-1.5-2.4s-1.5,1-1.5,2.4s0.5,1.9,1.5,1.9S34.8-5.4,34.8-6.8z M33.3-8.8
		c0.5,0,1,0.5,1,1.9S33.8-5,33.3-5s-1-1-1-1.9C32.3-8.3,32.8-8.8,33.3-8.8z"/>
	<path class="st10" d="M38.2-6.8c0-1.5-0.5-2.4-1.5-2.4s-1.5,1-1.5,2.4s1,1.9,1.5,1.9C37.7-4.9,38.2-5.4,38.2-6.8z M36.7-8.8
		c1,0,1,0.5,1,1.9S37.2-5,36.7-5s-0.5-1-0.5-1.9C35.7-8.3,35.7-8.8,36.7-8.8z"/>
	<path class="st10" d="M40.7-9.3v3.9l0,0l-1-0.5v0.5l1,0.5h0.5v-4.4h-1H40.7z"/>
	<path class="st10" d="M44.2-5.4L44.2-5.4l-1-0.5v0.5l1,0.5h0.5v-4.4H44L44.2-5.4z"/>
	<path class="st10" d="M49.3-7.3c0-1.5-0.5-2.4-1.5-2.4s-1.5,1-1.5,2.4c0,1.5,0.5,2.4,1.5,2.4C48.3-4.9,49.3-5.9,49.3-7.3z
		 M47.8-8.8c0.5,0,1,0.5,1,1.9S48.3-5,47.8-5s-1-0.5-1-1.9C46.9-8.3,47.3-8.8,47.8-8.8z"/>
	<path class="st10" d="M52.7-7.3c0-1.5-0.5-2.4-1.5-2.4s-1.5,1-1.5,2.4c0,1.5,0.5,2.4,1.5,2.4S52.7-5.9,52.7-7.3z M51.2-8.8
		c0.5,0,1,0.5,1,1.9S51.7-5,51.2-5s-1-1-1-1.9C50.2-8.3,50.7-8.8,51.2-8.8z"/>
</symbol>
<symbol  id="cloudy-2" viewBox="-10.3 -6.7 20.6 13.4">
	<path class="st11" d="M9.5-0.3C9.7-1.6,9.1-2.9,8-3.6C7.2-4.1,6.2-4.3,5.2-4H5.1c0,0,0-0.1-0.1-0.1C4.1-5.8,2-6.5,0.4-5.6
		c-0.5,0.2-1,0.6-1.2,1.1h-0.1c-1-0.5-2.2-0.4-3.2,0.1h-0.1C-5-4.8-6-4.8-6.9-4.5l-0.2,0.1l0,0C-9-3.8-10-1.8-9.4,0.1v0.1
		C-8.9,1-8.2,1.7-7.5,2.3l0.1,0.2c0.2,1.7,1.5,3,3.1,3.4c2,0.4,4.1-0.6,5.1-2.4h0.1c1.5,1.3,3.8,1.2,5.2-0.3C6.2,3,6.3,2.9,6.4,2.8
		c0-0.1,0.1,0,0.1,0C8.1,2.6,9.3,1.4,9.5-0.3L9.5-0.3z"/>
</symbol>
<symbol  id="rainy-2" viewBox="-10.3 -5.4 20.5 10.9">
	<path class="st11" d="M9.5-1.7v0.2C9.3,0,8.1,1.2,6.6,1.4H6.5C5.4,3.1,3.1,3.6,1.4,2.5C1.3,2.4,1.1,2.3,1,2.2H0.9
		C0,4.1-2.2,5.1-4.3,4.6c-1.6-0.4-2.8-1.7-3.1-3.4V1c-0.8-0.5-1.5-1.2-1.9-2.1c-0.1-0.2-0.2-0.5-0.2-0.7L9.5-1.7
		C9.6-1.8,9.5-1.7,9.5-1.7z"/>
	<path class="st12" d="M-1.8-3.5l-0.3-0.3l0.6-0.6C-1.3-4.6-1.2-4.8-1-5l0.4,0.3c-0.2,0.2-0.5,0.4-0.7,0.6C-1.5-3.9-1.7-3.7-1.8-3.5
		z"/>
	<path class="st12" d="M-4.6-3.4l-0.8-0.8c0.1-0.2,0.3-0.4,0.6-0.5c0.2-0.2,0.5-0.4,0.7-0.6l0.6,0.6C-3.6-4.4-3.8-4.2-4-4
		C-4.2-3.8-4.4-3.6-4.6-3.4z"/>
	<path class="st12" d="M-7.7-3.5l-0.4-0.4c0.3-0.5,0.6-1,1-1.4l0.7,0.7C-6.9-4.3-7.3-3.9-7.7-3.5z"/>
	<path class="st12" d="M7.4-3.5L6.7-4.2c0.4-0.3,0.9-0.6,1.4-0.9l0.3,0.4C8.1-4.3,7.7-3.9,7.4-3.5z"/>
	<path class="st13" d="M4.5-3.3l-1-1c0.3-0.4,0.7-0.8,1.2-1.1l1,0.9L4.5-3.3z"/>
	<path class="st12" d="M1.4-3.5L0.7-4.1C0.8-4.3,1-4.5,1.2-4.8l0.5-0.6l0.9,0.8L2-4L1.4-3.5z"/>
</symbol>
<symbol  id="sunny-2" viewBox="-10.2 -7.2 20.5 14.4">
	<circle class="st14" cx="4.9" cy="2" r="4.5"/>
	<path class="st11" d="M9.5-0.8C9.7-2.1,9.1-3.4,8-4.1C7.2-4.6,6.2-4.8,5.2-4.5H5.1c0-0.1,0-0.1-0.1-0.2C4.2-6.3,2.2-6.9,0.5-6.1
		C0-5.9-0.5-5.5-0.8-5h-0.1c-1-0.4-2.2-0.4-3.2,0.1c-0.1,0.1-0.1,0.1-0.2,0.1C-5.2-5.2-6.2-5.2-7-4.9l-0.1,0.1l0,0
		C-9-4.1-9.9-2.1-9.3-0.3l0,0c0.5,0.8,1.1,1.5,1.8,2.1V2C-7.2,3.7-6,5-4.3,5.4c1.9,0.4,3.8-0.4,4.8-2V3.2c0.1,0.1,0.1,0.2,0.1,0.3
		C0.5,2.2,1,0.9,2,0c1.1-0.9,2.6-1.2,4-0.9l0.3,0.1c1,0.2,1.8,0.7,2.6,1.3L9,0.6h0.1C9.3,0.2,9.4-0.3,9.5-0.8L9.5-0.8z"/>
</symbol>
<symbol  id="tunder-2" viewBox="-10.2 -9.9 20.5 19.8">
	<path class="st11" d="M9.5,2.8c0.1-1.2-0.4-2.4-1.4-3.2C7.3-0.9,6.2-1.1,5.3-0.8H5.2c0,0,0-0.1-0.1-0.1c-0.9-1.7-3-2.4-4.6-1.5
		C0-2.2-0.5-1.8-0.8-1.3h-0.1c-1-0.4-2.2-0.4-3.2,0.1h-0.1C-5-1.6-6-1.6-6.9-1.3l-0.2,0.1c-0.1,0-0.1,0-0.2,0.1
		C-9-0.5-10,1.5-9.3,3.3v0.1c0.4,0.8,1,1.6,1.8,2.1l0.1,0.2c0.2,1.7,1.5,3,3.1,3.4c2,0.4,4.1-0.6,5-2.4h0.1C2.4,8,4.7,7.9,6,6.4
		C6.1,6.3,6.2,6.1,6.3,6c0-0.1,0.1,0,0.1,0c1.6-0.2,2.8-1.4,3-3L9.5,2.8z"/>
	<path class="st12" d="M1.8,1L0.4-1.8c-0.6-0.9-1.1-1.8-1.7-2.8l-0.2,0.8c0.9-0.3,1.9-0.7,2.8-1l1-0.3L1.6-5.9
		C1.2-6.3,0.9-6.7,0.5-7.1s-0.8-0.7-1.2-1c-0.8-0.6-1.7-1.3-2.6-1.8l-0.1,0.1C-2.9-8.9-2.3-8-1.6-7.2c0.3,0.4,0.7,0.8,1,1.2
		s0.7,0.7,1.1,1l0.2-1.1c-0.8,0.5-1.7,1-2.6,1.3l-0.6,0.3L-2.1-4c0.6,0.8,1.2,1.7,1.9,2.5L1.8,1L1.8,1z"/>
</symbol>
<use xlink:href="#cloud-2"  width="106" height="64.1" id="cloud" x="-53" y="-32" transform="matrix(0.9006 0 0 -0.9006 61.3816 58.5442)" style="overflow:visible;"/>
<use xlink:href="#sunny-2"  width="20.5" height="14.4" id="sunny" x="-10.2" y="-7.2" transform="matrix(4.8493 0 0 -4.8493 180.4228 60.4567)" style="overflow:visible;"/>
<use xlink:href="#rainy-2"  width="20.5" height="10.9" id="rainy" x="-10.3" y="-5.4" transform="matrix(4.5112 0 0 -4.5112 300.1077 56.7771)" style="overflow:visible;"/>
<use xlink:href="#cloudy-2"  width="20.6" height="13.4" id="cloudy" x="-10.3" y="-6.7" transform="matrix(4.6213 0 0 -4.6213 420.3333 59.79)" style="overflow:visible;"/>
<use xlink:href="#tunder-2"  width="20.5" height="19.8" id="tunder" x="-10.2" y="-9.9" transform="matrix(4.1572 0 0 -4.1572 540.1526 68.7482)" style="overflow:visible;"/>
<use xlink:href="#basket-2"  width="18" height="15.3" id="basket" x="-9" y="-7.6" transform="matrix(4.8935 0 0 -4.8935 60.3333 179.5751)" style="overflow:visible;"/>
<use xlink:href="#New_Symbol"  width="106" height="106" id="basket-circle" x="-53" y="-53" transform="matrix(1 0 0 -1 179.9394 182.8144)" style="overflow:visible;"/>
<use xlink:href="#New_Symbol_1"  width="70.7" height="74.4" id="moon" x="-35.4" y="-37.2" transform="matrix(1.2844 0 0 -1.2844 299.5963 182.8144)" style="overflow:visible;"/>
<use xlink:href="#New_Symbol_2"  width="107.7" height="107.6" id="sun" x="-53.9" y="-53.7" transform="matrix(0.9998 0 0 -0.9998 419.7362 182.7645)" style="overflow:visible;"/>
<use xlink:href="#Deleted_Symbol_2"  width="104" height="105" id="XMLID_1_" x="-51.6" y="-52.5" transform="matrix(1 0 0 -1 541.1698 182.1856)" style="overflow:visible;"/>
</svg>
